<svg width="348" height="301" viewBox="0 0 348 301" fill="none" xmlns="http://www.w3.org/2000/svg">
<path d="M1.99999 87.5529C26.7164 121.002 72.9741 128.742 105.32 104.841C137.665 80.9404 143.85 34.4491 119.133 1" stroke="#DE9BFF" stroke-opacity="0.47" stroke-width="3"/>
<path d="M302.517 135.293C326.515 178.069 311.593 232.005 269.227 255.773C226.861 279.541 173.054 264.162 149.056 221.386C125.058 178.609 139.979 124.673 182.346 100.905C224.712 77.1377 278.519 92.5162 302.517 135.293Z" stroke="#DE9BFF" stroke-opacity="0.47" stroke-width="3"/>
<line x1="204.645" y1="21.9595" x2="204.645" y2="249.289" stroke="#DE9BFF" stroke-opacity="0.47" stroke-width="3"/>
<line x1="184.074" y1="21.9595" x2="184.074" y2="249.289" stroke="#DE9BFF" stroke-opacity="0.47" stroke-width="3"/>
<line x1="175.5" y1="22" x2="175.5" y2="249.329" stroke="#DE9BFF" stroke-opacity="0.47" stroke-width="3"/>
<line x1="168.5" y1="22" x2="168.5" y2="249.329" stroke="#DE9BFF" stroke-opacity="0.47" stroke-width="3"/>
<line x1="113.134" y1="21.9595" x2="113.134" y2="249.289" stroke="#DE9BFF" stroke-opacity="0.47" stroke-width="3"/>
<line x1="259.962" y1="58.9292" x2="42.3067" y2="58.9292" stroke="#DE9BFF" stroke-opacity="0.47" stroke-width="3"/>
<line x1="256.738" y1="115.359" x2="39.0821" y2="115.359" stroke="#DE9BFF" stroke-opacity="0.47" stroke-width="3"/>
<line x1="248.677" y1="179.849" x2="31.0208" y2="179.849" stroke="#DE9BFF" stroke-opacity="0.47" stroke-width="3"/>
<line x1="87.3378" y1="17.1227" x2="87.3378" y2="244.452" stroke="#DE9BFF" stroke-opacity="0.47" stroke-width="3"/>
<line x1="150.216" y1="17.1227" x2="150.216" y2="244.452" stroke="#DE9BFF" stroke-opacity="0.47" stroke-width="3"/>
<mask id="mask0_403_95" style="mask-type:luminance" maskUnits="userSpaceOnUse" x="74" y="72" width="149" height="137">
<path d="M74 72H222.328V208.252H74V72Z" fill="white"/>
</mask>
<g mask="url(#mask0_403_95)">
<path d="M94.3704 188.961L133.702 152.832M183.231 136.765L171.458 169.21C171.27 169.73 170.948 170.201 170.52 170.583C170.092 170.964 169.57 171.245 168.998 171.402L96.824 191.107C96.1738 191.285 95.483 191.295 94.8269 191.137C94.1709 190.978 93.5746 190.658 93.103 190.21C92.6314 189.762 92.3025 189.204 92.1522 188.597C92.0019 187.989 92.0359 187.355 92.2505 186.764L115.686 122.192C115.854 121.728 116.129 121.303 116.492 120.946C116.854 120.588 117.296 120.307 117.788 120.12L151.081 107.528C151.758 107.271 152.503 107.204 153.221 107.336C153.939 107.467 154.599 107.791 155.117 108.266L182.335 133.274C182.823 133.722 183.166 134.286 183.324 134.903C183.483 135.519 183.45 136.164 183.231 136.765Z" stroke="#090424" stroke-width="2" stroke-linecap="square" stroke-linejoin="round"/>
<path d="M184.44 134.202L206.206 111.987L177.991 84.5886L153.807 107.544M146.811 140.785C145.95 139.994 144.927 139.367 143.802 138.939C142.677 138.511 141.472 138.291 140.254 138.292C139.037 138.292 137.831 138.513 136.706 138.941C135.582 139.369 134.56 139.997 133.699 140.788C132.838 141.579 132.156 142.518 131.69 143.551C131.224 144.584 130.985 145.692 130.985 146.81C130.985 147.929 131.225 149.036 131.692 150.069C132.158 151.102 132.841 152.041 133.702 152.832C135.441 154.428 137.8 155.325 140.259 155.325C142.718 155.324 145.075 154.426 146.814 152.829C148.552 151.231 149.528 149.065 149.528 146.806C149.527 144.547 148.55 142.381 146.811 140.785Z" stroke="#090424" stroke-width="2" stroke-linecap="square" stroke-linejoin="round"/>
</g>
</svg>
